<svg width="48" height="48" viewBox="0 0 48 48" fill="none" xmlns="http://www.w3.org/2000/svg">
<g clip-path="url(#clip0_602_417)">
<path d="M48 43.425H43.425V45.72H48V43.425Z" fill="black"/>
<path d="M43.425 45.72H41.145V48H43.425V45.72Z" fill="black"/>
<path d="M41.145 29.715H38.85V31.995H41.145V34.29H43.425V22.86H41.145V29.715Z" fill="black"/>
<path d="M41.145 43.425H36.57V45.72H41.145V43.425Z" fill="black"/>
<path d="M41.145 20.58H38.85V22.86H41.145V20.58Z" fill="black"/>
<path d="M36.57 41.145H31.995V43.425H36.57V41.145Z" fill="black"/>
<path d="M34.29 31.995H36.57V29.715H38.85V27.435H36.57V20.58H38.85V18.285H36.57V11.43H34.29V31.995Z" fill="black"/>
<path d="M31.995 45.72H29.715V48H31.995V45.72Z" fill="black"/>
<path d="M31.995 27.435H29.715V29.715H31.995V27.435Z" fill="black"/>
<path d="M31.995 22.86H29.715V25.14H31.995V22.86Z" fill="black"/>
<path d="M29.715 41.145H27.42V45.72H29.715V41.145Z" fill="black"/>
<path d="M29.715 36.57H20.565V38.865H29.715V36.57Z" fill="black"/>
<path d="M29.715 2.28H27.42V4.575H29.715V2.28Z" fill="black"/>
<path d="M27.42 0H22.86V2.28H27.42V0Z" fill="black"/>
<path d="M29.715 13.71H27.42V11.43H22.86V13.71H25.14V16.005H22.86V13.71H20.565V18.285H22.86V20.58H27.42V18.285H29.715V13.71Z" fill="black"/>
<path d="M22.86 41.145H20.565V45.72H22.86V41.145Z" fill="black"/>
<path d="M15.99 34.29H18.285V36.57H20.565V34.29H29.715V36.57H31.995V34.29H34.29V31.995H15.99V34.29Z" fill="black"/>
<path d="M22.86 2.28H20.565V4.575H22.86V2.28Z" fill="black"/>
<path d="M20.565 45.72H18.285V48H20.565V45.72Z" fill="black"/>
<path d="M18.285 41.145H13.71V43.425H18.285V41.145Z" fill="black"/>
<path d="M20.565 6.85501V4.57501H18.285V6.85501H15.99V11.43H18.285V9.15001H31.995V11.43H34.29V6.85501H31.995V4.57501H29.715V6.85501H20.565Z" fill="black"/>
<path d="M15.99 11.43H13.71V18.285H11.43V20.58H13.71V27.435H11.43V29.715H13.71V31.995H15.99V11.43Z" fill="black"/>
<path d="M13.71 43.425H9.13499V45.72H13.71V43.425Z" fill="black"/>
<path d="M11.43 20.58H9.13499V22.86H11.43V20.58Z" fill="black"/>
<path d="M9.135 45.72H6.855V48H9.135V45.72Z" fill="black"/>
<path d="M9.135 22.86H6.855V34.29H9.135V31.995H11.43V29.715H9.135V22.86Z" fill="black"/>
<path d="M6.855 43.425H2.28V45.72H6.855V43.425Z" fill="black"/>
<path d="M2.28 45.72H0V48H2.28V45.72Z" fill="black"/>
</g>
<defs>
<clipPath id="clip0_602_417">
<rect width="48" height="48" fill="white"/>
</clipPath>
</defs>
</svg>
