<svg width="48" height="48" viewBox="0 0 48 48" fill="none" xmlns="http://www.w3.org/2000/svg">
<g clip-path="url(#clip0_105_50493)">
<path fill-rule="evenodd" clip-rule="evenodd" d="M4.5 1.5V4.5H1.5V31.5H3V33H6V34.5H9V36H12V37.5H15V39H18V40.5H21V42H24V43.5H27V45H30V46.5H33V19.5H34.5V46.5H36V13.5H34.5V12H33V10.5H30V9H27V7.5H21V9H19.5V7.5H18V6H16.5V4.5H13.5V3H10.5V1.5H4.5ZM31.5 18H33V19.5H31.5V18ZM28.5 16.5H31.5V18H28.5V16.5ZM25.5 15H28.5V16.5H25.5V15ZM22.5 13.5H25.5V15H22.5V13.5ZM19.5 12H22.5V13.5H19.5V12ZM16.5 10.5H19.5V12H16.5V10.5ZM13.5 9H16.5V10.5H13.5V9ZM10.5 7.5H13.5V9H10.5V7.5ZM7.5 6H10.5V7.5H7.5V6ZM7.5 6V4.5H4.5V6H7.5Z" fill="#DADADA"/>
<path d="M3 0H10.5V1.5H4.5V4.5H1.5V31.5H3V33H0V3H3V0Z" fill="black"/>
<path d="M6 34.5V33H3V34.5H6Z" fill="black"/>
<path d="M9 36V34.5H6V36H9Z" fill="black"/>
<path d="M12 37.5V36H9V37.5H12Z" fill="black"/>
<path d="M15 39V37.5H12V39H15Z" fill="black"/>
<path d="M18 40.5V39H15V40.5H18Z" fill="black"/>
<path d="M21 42V40.5H18V42H21Z" fill="black"/>
<path d="M24 43.5V42H21V43.5H24Z" fill="black"/>
<path d="M27 45V43.5H24V45H27Z" fill="black"/>
<path d="M30 46.5V45H27V46.5H30Z" fill="black"/>
<path d="M33 19.5V46.5H30V48H40.5V46.5H42V45H43.5V43.5H45V42H46.5V40.5H48V33H45V31.5H42V30H37.5V13.5H36V12H34.5V10.5H33V9H30V7.5H27V6H21V7.5H19.5V6H18V4.5H16.5V3H13.5V1.5H10.5V3H13.5V4.5H16.5V6H18V7.5H19.5V9H21V7.5H27V9H30V10.5H33V12H34.5V13.5H36V46.5H34.5V19.5H33Z" fill="black"/>
<path d="M31.5 18V19.5H33V18H31.5Z" fill="black"/>
<path d="M28.5 16.5H31.5V18H28.5V16.5Z" fill="black"/>
<path d="M25.5 15H28.5V16.5H25.5V15Z" fill="black"/>
<path d="M22.5 13.5H25.5V15H22.5V13.5Z" fill="black"/>
<path d="M19.5 12H22.5V13.5H19.5V12Z" fill="black"/>
<path d="M16.5 10.5H19.5V12H16.5V10.5Z" fill="black"/>
<path d="M13.5 9H16.5V10.5H13.5V9Z" fill="black"/>
<path d="M10.5 7.5H13.5V9H10.5V7.5Z" fill="black"/>
<path d="M7.5 6H10.5V7.5H7.5V6Z" fill="black"/>
<path d="M7.5 6V4.5H4.5V6H7.5Z" fill="black"/>
<path d="M20.1436 18L19.6529 20.2782L21.4541 18H20.1436ZM24 18.4763L20.9474 21.8563L24 20.6351V18.4763ZM16.1885 19.6258C16.1719 19.6261 16.1556 19.6267 16.1391 19.6274C15.8967 19.6382 15.6709 19.6946 15.4843 19.821C15.0519 20.1139 15.1964 20.7681 14.9036 21.4293C13.9034 23.6883 12.8929 25.3265 12 26.5355V29.1707C13.5698 28.6266 15.9079 28.0627 19.3247 27.9495C20.0417 27.9258 20.5923 28.2702 21.0223 27.979C22.0837 27.26 21.6994 24.8572 20.1739 22.6051C20.0786 22.4644 19.9898 22.3212 19.8903 22.1885C18.6973 20.5972 17.236 19.6118 16.1885 19.6259L16.1885 19.6258ZM16.0515 20.2504C15.8793 20.6045 16.041 21.3684 16.4578 22.3088C16.3263 21.834 16.3383 21.4894 16.5263 21.3752C16.9373 21.1253 18.0316 22.0679 18.9703 23.4806C19.9088 24.8932 20.3364 26.241 19.9254 26.4909C19.7563 26.5937 19.4714 26.4944 19.1296 26.244C19.8361 26.96 20.4738 27.3786 20.8654 27.3568C20.8199 27.4376 20.7717 27.516 20.6997 27.5648C20.014 28.0293 18.3607 26.7936 17.0122 24.8029C15.6637 22.8122 15.1292 20.8176 15.8149 20.3531C15.8852 20.3056 15.9623 20.2633 16.0515 20.2504V20.2504ZM24 23.1962L21.8412 23.8956L24 24.223V23.1962V23.1962Z" fill="black"/>
</g>
<defs>
<clipPath id="clip0_105_50493">
<rect width="48" height="48" fill="white"/>
</clipPath>
</defs>
</svg>
