<svg width="48" height="48" viewBox="0 0 48 48" fill="none" xmlns="http://www.w3.org/2000/svg">
<g clip-path="url(#clip0_103_50468)">
<path fill-rule="evenodd" clip-rule="evenodd" d="M4.5 1.5V4.5H1.5V31.5H3V33H6V34.5H9V36H12V37.5H15V39H18V40.5H21V42H24V43.5H27V45H30V46.5H33V19.5H34.5V46.5H36V13.5H34.5V12H33V10.5H30V9H27V7.5H21V9H19.5V7.5H18V6H16.5V4.5H13.5V3H10.5V1.5H4.5ZM31.5 18H33V19.5H31.5V18ZM28.5 16.5H31.5V18H28.5V16.5ZM25.5 15H28.5V16.5H25.5V15ZM22.5 13.5H25.5V15H22.5V13.5ZM19.5 12H22.5V13.5H19.5V12ZM16.5 10.5H19.5V12H16.5V10.5ZM13.5 9H16.5V10.5H13.5V9ZM10.5 7.5H13.5V9H10.5V7.5ZM7.5 6H10.5V7.5H7.5V6ZM7.5 6V4.5H4.5V6H7.5Z" fill="#DADADA"/>
<path d="M3 0H10.5V1.5H4.5V4.5H1.5V31.5H3V33H0V3H3V0Z" fill="black"/>
<path d="M6 34.5V33H3V34.5H6Z" fill="black"/>
<path d="M9 36V34.5H6V36H9Z" fill="black"/>
<path d="M12 37.5V36H9V37.5H12Z" fill="black"/>
<path d="M15 39V37.5H12V39H15Z" fill="black"/>
<path d="M18 40.5V39H15V40.5H18Z" fill="black"/>
<path d="M21 42V40.5H18V42H21Z" fill="black"/>
<path d="M24 43.5V42H21V43.5H24Z" fill="black"/>
<path d="M27 45V43.5H24V45H27Z" fill="black"/>
<path d="M30 46.5V45H27V46.5H30Z" fill="black"/>
<path d="M33 19.5V46.5H30V48H40.5V46.5H42V45H43.5V43.5H45V42H46.5V40.5H48V33H45V31.5H42V30H37.5V13.5H36V12H34.5V10.5H33V9H30V7.5H27V6H21V7.5H19.5V6H18V4.5H16.5V3H13.5V1.5H10.5V3H13.5V4.5H16.5V6H18V7.5H19.5V9H21V7.5H27V9H30V10.5H33V12H34.5V13.5H36V46.5H34.5V19.5H33Z" fill="black"/>
<path d="M31.5 18V19.5H33V18H31.5Z" fill="black"/>
<path d="M28.5 16.5H31.5V18H28.5V16.5Z" fill="black"/>
<path d="M25.5 15H28.5V16.5H25.5V15Z" fill="black"/>
<path d="M22.5 13.5H25.5V15H22.5V13.5Z" fill="black"/>
<path d="M19.5 12H22.5V13.5H19.5V12Z" fill="black"/>
<path d="M16.5 10.5H19.5V12H16.5V10.5Z" fill="black"/>
<path d="M13.5 9H16.5V10.5H13.5V9Z" fill="black"/>
<path d="M10.5 7.5H13.5V9H10.5V7.5Z" fill="black"/>
<path d="M7.5 6H10.5V7.5H7.5V6Z" fill="black"/>
<path d="M7.5 6V4.5H4.5V6H7.5Z" fill="black"/>
</g>
<path d="M14.7165 19.875L16.8216 21.5545L18.6416 21.6548L18.6175 22.092L14.8352 21.8833L12.0513 21.7684L17.3782 23.3628L12.7441 29.146L12.4036 28.7322L11.25 30.9969L17.0787 26.2442L18.293 26.5159L17.3841 27.4673L17.083 27.2146L15.7405 29.1863L21.1692 25.9014L18.4307 25.1418L20.7796 23.2265C20.8061 23.2373 20.8335 23.2476 20.8616 23.2551C21.4083 23.4016 22.028 22.8606 22.2458 22.0473C22.4638 21.2342 22.1971 20.4565 21.6504 20.31C21.1037 20.1636 20.484 20.7038 20.2661 21.5171C20.2317 21.6454 20.2098 21.773 20.1987 21.8972L14.7165 19.875V19.875Z" fill="black"/>
<defs>
<clipPath id="clip0_103_50468">
<rect width="48" height="48" fill="white"/>
</clipPath>
</defs>
</svg>
