<svg width="48" height="48" viewBox="0 0 48 48" fill="none" xmlns="http://www.w3.org/2000/svg">
<g clip-path="url(#clip0_105_50503)">
<path fill-rule="evenodd" clip-rule="evenodd" d="M4.5 1.5V4.5H1.5V31.5H3V33H6V34.5H9V36H12V37.5H15V39H18V40.5H21V42H24V43.5H27V45H30V46.5H33V19.5H34.5V46.5H36V13.5H34.5V12H33V10.5H30V9H27V7.5H21V9H19.5V7.5H18V6H16.5V4.5H13.5V3H10.5V1.5H4.5ZM31.5 18H33V19.5H31.5V18ZM28.5 16.5H31.5V18H28.5V16.5ZM25.5 15H28.5V16.5H25.5V15ZM22.5 13.5H25.5V15H22.5V13.5ZM19.5 12H22.5V13.5H19.5V12ZM16.5 10.5H19.5V12H16.5V10.5ZM13.5 9H16.5V10.5H13.5V9ZM10.5 7.5H13.5V9H10.5V7.5ZM7.5 6H10.5V7.5H7.5V6ZM7.5 6V4.5H4.5V6H7.5Z" fill="#DADADA"/>
<path d="M3 0H10.5V1.5H4.5V4.5H1.5V31.5H3V33H0V3H3V0Z" fill="black"/>
<path d="M6 34.5V33H3V34.5H6Z" fill="black"/>
<path d="M9 36V34.5H6V36H9Z" fill="black"/>
<path d="M12 37.5V36H9V37.5H12Z" fill="black"/>
<path d="M15 39V37.5H12V39H15Z" fill="black"/>
<path d="M18 40.5V39H15V40.5H18Z" fill="black"/>
<path d="M21 42V40.5H18V42H21Z" fill="black"/>
<path d="M24 43.5V42H21V43.5H24Z" fill="black"/>
<path d="M27 45V43.5H24V45H27Z" fill="black"/>
<path d="M30 46.5V45H27V46.5H30Z" fill="black"/>
<path d="M33 19.5V46.5H30V48H40.5V46.5H42V45H43.5V43.5H45V42H46.5V40.5H48V33H45V31.5H42V30H37.5V13.5H36V12H34.5V10.5H33V9H30V7.5H27V6H21V7.5H19.5V6H18V4.5H16.5V3H13.5V1.5H10.5V3H13.5V4.5H16.5V6H18V7.5H19.5V9H21V7.5H27V9H30V10.5H33V12H34.5V13.5H36V46.5H34.5V19.5H33Z" fill="black"/>
<path d="M31.5 18V19.5H33V18H31.5Z" fill="black"/>
<path d="M28.5 16.5H31.5V18H28.5V16.5Z" fill="black"/>
<path d="M25.5 15H28.5V16.5H25.5V15Z" fill="black"/>
<path d="M22.5 13.5H25.5V15H22.5V13.5Z" fill="black"/>
<path d="M19.5 12H22.5V13.5H19.5V12Z" fill="black"/>
<path d="M16.5 10.5H19.5V12H16.5V10.5Z" fill="black"/>
<path d="M13.5 9H16.5V10.5H13.5V9Z" fill="black"/>
<path d="M10.5 7.5H13.5V9H10.5V7.5Z" fill="black"/>
<path d="M7.5 6H10.5V7.5H7.5V6Z" fill="black"/>
<path d="M7.5 6V4.5H4.5V6H7.5Z" fill="black"/>
<path d="M18.6498 19C17.6484 20.1327 16.4798 20.9837 15.0614 21.7354C15.3585 21.8877 15.6882 21.9701 15.9853 22.0101C16.2176 22.04 16.4298 22.0425 16.5821 22.0375C16.6596 22.035 16.722 22.0325 16.7644 22.0275C16.7869 22.025 16.8044 22.0225 16.8144 22.0225C16.8244 22.02 16.8493 22.0101 16.8019 22.0275L16.9417 22.452C16.8893 22.472 16.8943 22.4645 16.8768 22.467C16.8568 22.4695 16.8369 22.472 16.8094 22.4745C16.7544 22.4795 16.6845 22.4845 16.5971 22.487C16.5347 22.4895 16.4673 22.4895 16.3924 22.4895C16.4024 22.532 16.4073 22.5744 16.4073 22.6219C16.4073 22.9764 16.0852 23.2336 15.7331 23.2336C15.381 23.2336 15.0591 22.9764 15.0591 22.6219C15.0591 22.492 15.1038 22.3746 15.1763 22.2772C14.9752 22.2023 14.7752 22.1049 14.5879 21.9751C14.0895 22.2223 13.5616 22.4595 13 22.6943V26.4325C13.2779 27.1417 13.7469 27.7035 14.8556 27.9957L14.7408 28.4302C13.9107 28.2104 13.3666 27.8134 13 27.334V28.0132C13.2382 28.4002 13.5007 28.7049 13.9929 28.8522L13.8655 29.2817C13.4959 29.1743 13.2197 28.9821 13 28.7523V29.9784H18.4675C18.8196 29.8735 19.0119 29.7362 19.1817 29.5739C19.2865 29.474 19.3814 29.3616 19.4913 29.2468C18.3726 28.7548 17.4761 28.4627 16.742 27.9782C15.9379 27.4488 15.3486 26.6647 14.9205 25.1914L14.8881 25.079L14.9605 24.9891C15.9104 23.7955 18.0904 22.7392 19.7485 21.9451C19.6911 20.8788 19.3789 19.895 18.6498 19ZM18.3177 19.8678L18.7671 19.8847C18.7522 20.312 18.6348 20.789 18.1703 21.1835L17.8807 20.8389C18.2452 20.5292 18.3027 20.2421 18.3177 19.8678ZM25 20.4094C24.8202 20.5018 24.583 20.6316 24.3333 20.789C23.8139 21.1111 23.257 21.5606 23.0897 21.9077C22.8949 22.3147 22.8974 23.1313 22.9798 23.823C23.0647 24.5122 23.2046 25.0815 23.2046 25.0815L23.242 25.2339L23.1147 25.3213C22.4804 25.7583 22.0908 26.2052 21.6638 26.6098L21.6089 26.6597L21.0795 26.7246C21.107 27.2191 20.9122 27.6486 20.7549 28.0431L21.052 28.1031C21.3742 27.8259 21.6139 27.5362 21.7188 27.2341L21.7537 27.1342L21.8536 27.0967C22.6777 26.7896 23.3868 26.2877 23.9937 25.6384C24.2683 25.1165 24.096 24.4947 24.0686 23.7955L24.0661 23.7031L25 22.6868V20.4094V20.4094ZM15.7331 22.4595C15.5908 22.4595 15.5084 22.5494 15.5084 22.6219C15.5084 22.6943 15.5908 22.7842 15.7331 22.7842C15.8755 22.7842 15.9579 22.6943 15.9579 22.6219C15.9579 22.5494 15.8755 22.4595 15.7331 22.4595ZM19.6062 22.5494C19.3615 22.6593 19.1167 22.7692 18.872 22.8766C18.7522 22.9365 18.6348 22.9989 18.5149 23.0613L18.5923 23.0738C18.9819 23.1413 19.2316 23.3136 19.4389 23.4809C19.5462 23.1537 19.6212 22.8441 19.6062 22.5494V22.5494ZM22.4679 22.9415C22.2307 23.5258 22.0409 24.1151 21.8936 24.4897L21.8586 24.5796L21.7687 24.6146C21.1644 24.8643 20.4702 25.089 19.294 24.7844C19.1292 25.2189 18.7746 25.511 18.4825 25.7882L18.6747 25.9505C18.8046 25.8956 18.9494 25.8307 19.0918 25.7533C19.2766 25.6534 19.4364 25.526 19.4813 25.4586L19.5637 25.3312L19.7111 25.3612C20.9596 25.5959 21.7263 25.4361 22.4554 24.9991C22.5353 24.9517 22.6127 24.9017 22.6926 24.8468C22.6477 24.6296 22.5853 24.2974 22.5353 23.8754C22.4979 23.5758 22.4704 23.2561 22.4679 22.9415V22.9415ZM18.2527 23.1987C17.9656 23.3535 17.6784 23.5108 17.4012 23.6731L17.4536 23.6856C17.8332 23.7755 18.0954 23.9279 18.3077 24.0877C18.3401 24.0028 18.3726 23.9204 18.3926 23.8479C18.4325 23.6881 18.44 23.5658 18.3551 23.3985L18.2527 23.1987ZM17.1515 23.823C16.8718 23.9928 16.6071 24.1651 16.3624 24.3374L16.5297 24.3599C16.7994 24.3923 16.9992 24.5097 17.139 24.6395C17.1565 24.657 17.169 24.6745 17.1865 24.6895C17.2339 24.4423 17.2414 24.1975 17.184 23.9578L17.1515 23.823V23.823ZM16.2575 24.4148C16.0053 24.5971 15.7806 24.7819 15.5933 24.9667C15.8205 25.0665 16.0378 25.1914 16.2375 25.3487C16.3075 25.099 16.3075 24.8618 16.28 24.6071L16.2575 24.4148V24.4148ZM17.1865 26.6672C16.9292 26.7896 16.6296 26.9069 16.2975 27.0043C16.5047 27.2441 16.7345 27.4338 16.9892 27.6036C17.0266 27.6286 17.0641 27.6511 17.1016 27.6736L17.1515 27.4214C17.1715 27.3115 17.1989 27.0967 17.1989 26.8945C17.2014 26.8145 17.1939 26.7371 17.1865 26.6672V26.6672ZM18.3626 27.1916C18.0804 27.3989 17.7808 27.5662 17.4412 27.6786L17.2264 27.7485C17.4686 27.8858 17.7358 28.0107 18.0305 28.138L18.1329 27.8683C18.2203 27.6386 18.3027 27.4538 18.3426 27.299C18.3526 27.2615 18.3576 27.2266 18.3626 27.1916V27.1916ZM19.3964 27.7085C19.0593 27.9183 18.7147 28.0656 18.4101 28.163L18.2253 28.2229C18.4675 28.3228 18.7297 28.4302 19.0069 28.5451L19.0968 28.3278C19.1867 28.1156 19.3265 27.9333 19.3964 27.7085V27.7085ZM20.3154 28.3003C19.9558 28.4702 19.5912 28.5975 19.339 28.6375L19.2591 28.6499C19.4588 28.7348 19.6661 28.8247 19.8859 28.9246C19.9533 28.9196 19.9982 28.8972 20.0482 28.8547C20.1081 28.8023 20.168 28.7099 20.218 28.59C20.2554 28.5026 20.2854 28.4027 20.3154 28.3003V28.3003Z" fill="black"/>
</g>
<defs>
<clipPath id="clip0_105_50503">
<rect width="48" height="48" fill="white"/>
</clipPath>
</defs>
</svg>
