<svg width="48" height="48" viewBox="0 0 48 48" fill="none" xmlns="http://www.w3.org/2000/svg">
<g clip-path="url(#clip0_602_772)">
<path d="M45.705 6.855H43.425V4.575H41.13V2.28H36.57V0H11.415V2.28H27.42V4.575H31.995V6.855H34.275V9.15H36.57V20.565H34.275V22.86H31.995V45.72H6.855V48H38.85V45.72H41.13V43.425H43.425V41.145H45.705V20.565H48V9.15H45.705V6.855Z" fill="black"/>
<path d="M25.14 31.995H22.845V34.29H25.14V31.995Z" fill="black"/>
<path d="M22.845 27.435H20.565V29.715H22.845V27.435Z" fill="black"/>
<path d="M22.845 34.29H13.71V36.57H22.845V34.29Z" fill="black"/>
<path d="M15.99 27.435H13.71V29.715H15.99V27.435Z" fill="black"/>
<path d="M13.71 31.995H11.415V34.29H13.71V31.995Z" fill="black"/>
<path d="M11.415 2.28003H6.855V4.57503H11.415V2.28003Z" fill="black"/>
<path d="M6.855 22.86H4.56V45.72H6.855V22.86Z" fill="black"/>
<path d="M6.855 4.57501H4.56V6.85501H6.855V4.57501Z" fill="black"/>
<path d="M4.56 20.565H2.28V22.86H4.56V20.565Z" fill="black"/>
<path d="M4.56 6.85498H2.28V9.14998H4.56V6.85498Z" fill="black"/>
<path d="M2.28 9.15002H0V20.565H2.28V9.15002Z" fill="black"/>
</g>
<defs>
<clipPath id="clip0_602_772">
<rect width="48" height="48" fill="white"/>
</clipPath>
</defs>
</svg>
