<svg width="145" height="127" viewBox="0 0 145 127" fill="none" xmlns="http://www.w3.org/2000/svg">
<mask id="mask0_127_50600" style="mask-type:alpha" maskUnits="userSpaceOnUse" x="20" y="13" width="108" height="88">
<path fill-rule="evenodd" clip-rule="evenodd" d="M117.675 92.8902C115.502 100.959 95.9739 100.709 75.1057 100.442C71.3184 100.393 67.487 100.344 63.7071 100.344C31.1244 100.344 20.9296 85.2932 20.9297 61.4313C20.9297 37.5695 43.1066 3.97003 76.9505 16.4801C81.0392 17.9915 84.3386 19.6999 87.0171 21.5788C89.2854 21.0639 92.0397 21.0369 95.3379 21.5877C136.715 28.4988 130.035 77.9723 117.675 92.8902Z" fill="#EFF5FB"/>
</mask>
<g mask="url(#mask0_127_50600)">
<rect width="171.137" height="152.26" transform="matrix(-1 0 0 1 153.638 -20.2017)" fill="#EFF5FB"/>
</g>
<rect x="118.296" y="66.2197" width="21.6874" height="16.6438" rx="4.03486" fill="#ECECF0"/>
<g clip-path="url(#clip0_127_50600)">
<path fill-rule="evenodd" clip-rule="evenodd" d="M123.591 74.5411C123.591 71.4771 126.075 68.9932 129.139 68.9932C132.203 68.9932 134.687 71.4771 134.687 74.5411C134.687 77.6051 132.203 80.089 129.139 80.089C126.075 80.089 123.591 77.6051 123.591 74.5411Z" fill="#AFAFB5"/>
<path fill-rule="evenodd" clip-rule="evenodd" d="M131.817 72.5452C132.014 72.7422 132.014 73.0615 131.817 73.2585L128.687 76.5368C128.49 76.7338 128.17 76.7338 127.973 76.5368L126.46 75.0237C126.263 74.8268 126.263 74.5074 126.46 74.3105C126.657 74.1135 126.977 74.1135 127.173 74.3105L128.33 75.4669L131.104 72.5452C131.301 72.3483 131.62 72.3483 131.817 72.5452Z" fill="#E5E5EB"/>
</g>
<rect x="0.5" y="30.5083" width="40.8617" height="23.2092" rx="3.53486" fill="#ECECF0"/>
<ellipse cx="5.71719" cy="35.7242" rx="1.68203" ry="1.68119" fill="#54CD83"/>
<rect x="10.0869" y="34.5474" width="26.7309" height="2.52179" rx="1.00871" fill="#D4D4D9"/>
<ellipse cx="5.71719" cy="42.1128" rx="1.68203" ry="1.68119" fill="#838DEB"/>
<rect x="10.5918" y="41.105" width="15.6351" height="2.52179" rx="1.00871" fill="#D4D4D9"/>
<ellipse cx="5.71719" cy="48.5015" rx="1.68203" ry="1.68119" fill="#64B5F6"/>
<rect x="10.4248" y="47.3247" width="22.1917" height="2.52179" rx="1.00871" fill="#D4D4D9"/>
<rect x="0.5" y="30.5083" width="40.8617" height="23.2092" rx="3.53486" stroke="black"/>
<path d="M98.4585 95.3987H49.3087C46.461 95.3987 44.1523 93.0901 44.1523 90.2424V63.0582C44.1523 60.2105 46.461 57.9019 49.3087 57.9019H98.4585C101.306 57.9019 103.615 60.2105 103.615 63.0582V90.2424C103.615 93.0901 101.306 95.3987 98.4585 95.3987Z" fill="white"/>
<path d="M98.4585 95.3987H49.3087C46.461 95.3987 44.1523 93.0901 44.1523 90.2424V63.0582C44.1523 60.2105 46.461 57.9019 49.3087 57.9019H98.4585C101.306 57.9019 103.615 60.2105 103.615 63.0582V90.2424C103.615 93.0901 101.306 95.3987 98.4585 95.3987Z" stroke="black" stroke-width="2.21875" stroke-miterlimit="10"/>
<path d="M124.376 72.4325C113.114 82.9831 101.827 77.1844 97.4052 70.132" stroke="black" stroke-width="15.5313" stroke-linecap="round" stroke-linejoin="round"/>
<path d="M124.376 72.4325C113.114 82.9831 101.827 77.1844 97.4052 70.132" stroke="white" stroke-width="11.0938" stroke-linecap="round" stroke-linejoin="round"/>
<path d="M114.636 70.8774C114.636 70.8774 114.154 78.8443 117.095 84.0821" stroke="black" stroke-width="2.21875"/>
<path d="M106.956 70.339C106.956 70.339 103.623 75.7859 103.414 83.1413" stroke="black" stroke-width="2.21875"/>
<path d="M23.698 72.4325C34.9598 82.9831 46.2475 77.1844 50.6691 70.132" stroke="black" stroke-width="15.5313" stroke-linecap="round" stroke-linejoin="round"/>
<path d="M23.698 72.4325C34.9598 82.9831 46.2475 77.1844 50.6691 70.132" stroke="white" stroke-width="11.0938" stroke-linecap="round" stroke-linejoin="round"/>
<path d="M33.4385 70.8774C33.4385 70.8774 33.9206 78.8443 30.9792 84.0821" stroke="black" stroke-width="2.21875"/>
<path d="M41.1182 70.339C41.1182 70.339 44.4513 75.7859 44.6602 83.1413" stroke="black" stroke-width="2.21875"/>
<path d="M135.378 72.243C135.378 72.243 140.026 72.1557 141.601 67.9557C142.842 64.6465 140.212 59.7281 138.077 58.9769C136.373 58.3771 134.78 59.2395 134.218 60.5387C133.271 62.7261 137.287 64.3426 134.618 66.2738C132.645 67.7013 128.32 62.7587 124.215 64.4938C120.791 65.9415 119.146 68.0657 119.332 71.9273C119.508 75.5658 122.466 79.4359 125.158 80.3347C127.729 81.1932 128.484 81.5634 129.84 82.1706C131.227 82.7923 132.895 83.7035 133.905 84.4063C135.741 85.6838 137.344 85.5084 138.155 84.5249C139.014 83.4836 139.283 81.9872 137.828 80.2272C136.373 78.4671 134.163 77.5361 134.163 77.5361" fill="white"/>
<path d="M135.378 72.243C135.378 72.243 140.026 72.1557 141.601 67.9557C142.842 64.6465 140.212 59.7281 138.077 58.9769C136.373 58.3771 134.78 59.2395 134.218 60.5387C133.271 62.7261 137.287 64.3426 134.618 66.2738C132.645 67.7013 128.32 62.7587 124.215 64.4938C120.791 65.9415 119.146 68.0657 119.332 71.9273C119.508 75.5658 122.466 79.4359 125.158 80.3347C127.729 81.1932 128.484 81.5634 129.84 82.1706C131.227 82.7923 132.895 83.7035 133.905 84.4063C135.741 85.6838 137.344 85.5084 138.155 84.5249C139.014 83.4836 139.283 81.9872 137.828 80.2272C136.373 78.4671 134.163 77.5361 134.163 77.5361" stroke="black" stroke-width="2.21875" stroke-linecap="round" stroke-linejoin="round"/>
<path d="M134.675 72.0244C134.675 72.0244 144.818 74.2913 143.04 78.8658C141.393 83.1037 136.227 78.5262 133.389 76.9492" fill="white"/>
<path d="M134.675 72.0244C134.675 72.0244 144.818 74.2913 143.04 78.8658C141.393 83.1037 136.227 78.5262 133.389 76.9492" stroke="black" stroke-width="2.21875" stroke-linecap="round" stroke-linejoin="round"/>
<path d="M124.764 65.0626C125.23 64.5238 125.439 62.5982 126.274 61.1242C127.824 58.3877 130.259 58.0539 132.062 58.5224C133.962 59.0163 134.384 61.6382 133.711 62.7585C132.828 64.2291 131.543 63.0279 131.099 64.1297C130.847 64.7558 130.718 65.4005 130.201 66.3399" fill="white"/>
<path d="M124.764 65.0626C125.23 64.5238 125.439 62.5982 126.274 61.1242C127.824 58.3877 130.259 58.0539 132.062 58.5224C133.962 59.0163 134.384 61.6382 133.711 62.7585C132.828 64.2291 131.543 63.0279 131.099 64.1297C130.847 64.7558 130.718 65.4005 130.201 66.3399" stroke="black" stroke-width="2.21875" stroke-linecap="round" stroke-linejoin="round"/>
<path d="M12.6444 72.2435C12.6444 72.2435 7.99622 72.1562 6.4216 67.9562C5.18086 64.647 7.8107 59.7286 9.94524 58.9774C11.6496 58.3776 13.2428 59.24 13.8049 60.5391C14.7515 62.7266 10.7355 64.3431 13.4044 66.2743C15.377 67.7018 19.7025 62.7591 23.8074 64.4943C27.2319 65.942 28.8762 68.0662 28.6901 71.9278C28.5146 75.5663 25.5569 79.4363 22.8646 80.3352C20.2937 81.1937 19.5383 81.5639 18.1829 82.1711C16.7953 82.7927 15.1273 83.704 14.1173 84.4068C12.2812 85.6843 10.6788 85.5089 9.86736 84.5254C9.0082 83.4841 8.73898 81.9877 10.194 80.2277C11.6491 78.4676 13.8595 77.5366 13.8595 77.5366" fill="white"/>
<path d="M12.6444 72.2435C12.6444 72.2435 7.99622 72.1562 6.4216 67.9562C5.18086 64.647 7.8107 59.7286 9.94524 58.9774C11.6496 58.3776 13.2428 59.24 13.8049 60.5391C14.7515 62.7266 10.7355 64.3431 13.4044 66.2743C15.377 67.7018 19.7025 62.7591 23.8074 64.4943C27.2319 65.942 28.8762 68.0662 28.6901 71.9278C28.5146 75.5663 25.5569 79.4363 22.8646 80.3352C20.2937 81.1937 19.5383 81.5639 18.1829 82.1711C16.7953 82.7927 15.1273 83.704 14.1173 84.4068C12.2812 85.6843 10.6788 85.5089 9.86736 84.5254C9.0082 83.4841 8.73898 81.9877 10.194 80.2277C11.6491 78.4676 13.8595 77.5366 13.8595 77.5366" stroke="black" stroke-width="2.21875" stroke-linecap="round" stroke-linejoin="round"/>
<path d="M13.3472 72.0244C13.3472 72.0244 3.20452 74.2913 4.98221 78.8658C6.62907 83.1037 11.7954 78.5262 14.6331 76.9492" fill="white"/>
<path d="M13.3472 72.0244C13.3472 72.0244 3.20452 74.2913 4.98221 78.8658C6.62907 83.1037 11.7954 78.5262 14.6331 76.9492" stroke="black" stroke-width="2.21875" stroke-linecap="round" stroke-linejoin="round"/>
<path d="M23.2589 65.0631C22.7923 64.5243 22.583 62.5987 21.748 61.1247C20.198 58.3882 17.7636 58.0544 15.9609 58.5229C14.0601 59.0167 13.6382 61.6387 14.3112 62.759C15.1947 64.2296 16.4798 63.0284 16.9232 64.1302C17.1751 64.7563 17.304 65.401 17.8217 66.3404" fill="white"/>
<path d="M23.2589 65.0631C22.7923 64.5243 22.583 62.5987 21.748 61.1247C20.198 58.3882 17.7636 58.0544 15.9609 58.5229C14.0601 59.0167 13.6382 61.6387 14.3112 62.759C15.1947 64.2296 16.4798 63.0284 16.9232 64.1302C17.1751 64.7563 17.304 65.401 17.8217 66.3404" stroke="black" stroke-width="2.21875" stroke-linecap="round" stroke-linejoin="round"/>
<path d="M77.9797 97.8401H69.7894C57.4689 97.8401 47.4814 87.8527 47.4814 75.5322V66.1602C47.4814 60.4968 52.0725 55.9058 57.7358 55.9058H90.0333C95.6967 55.9058 100.288 60.4968 100.288 66.1602V75.5322C100.288 87.8527 90.3002 97.8401 77.9797 97.8401Z" fill="white"/>
<path d="M77.9797 97.8401H69.7894C57.4689 97.8401 47.4814 87.8527 47.4814 75.5322V66.1602C47.4814 60.4968 52.0725 55.9058 57.7358 55.9058H90.0333C95.6967 55.9058 100.288 60.4968 100.288 66.1602V75.5322C100.288 87.8527 90.3002 97.8401 77.9797 97.8401Z" stroke="black" stroke-width="2.21875" stroke-miterlimit="10"/>
<path d="M86.0017 87.4416H61.7663C61.2901 87.4416 60.9043 87.0558 60.9043 86.5796V75.8786C60.9043 75.4024 61.2901 75.0166 61.7663 75.0166H86.0017C86.4778 75.0166 86.8637 75.4024 86.8637 75.8786V86.5796C86.8637 87.0558 86.4778 87.4416 86.0017 87.4416Z" fill="white"/>
<path d="M86.0017 87.4416H61.7663C61.2901 87.4416 60.9043 87.0558 60.9043 86.5796V75.8786C60.9043 75.4024 61.2901 75.0166 61.7663 75.0166H86.0017C86.4778 75.0166 86.8637 75.4024 86.8637 75.8786V86.5796C86.8637 87.0558 86.4778 87.4416 86.0017 87.4416Z" stroke="black" stroke-width="1.775" stroke-miterlimit="10"/>
<path d="M57.5637 96.5683L76.0114 105.111" stroke="black" stroke-width="15.5313" stroke-linecap="round" stroke-linejoin="round"/>
<path d="M57.5637 96.5683L76.0114 105.111" stroke="white" stroke-width="11.0938" stroke-linecap="round" stroke-linejoin="round"/>
<path d="M63.4922 92.8306L57.8525 103.982" stroke="black" stroke-width="1.775"/>
<path d="M72.8389 97.0063L67.3928 108.405" stroke="black" stroke-width="1.775"/>
<path d="M70.0804 118.175L75.6312 101.147C76.0582 99.8374 77.466 99.1218 78.7758 99.5488L84.5963 101.446C85.9061 101.873 86.6217 103.281 86.1947 104.591L80.6439 121.619C79.693 124.536 76.5574 126.129 73.6404 125.179C70.7234 124.228 69.1295 121.092 70.0804 118.175Z" fill="white"/>
<path d="M70.0804 118.175L75.6312 101.147C76.0582 99.8374 77.466 99.1218 78.7758 99.5488L84.5963 101.446C85.9061 101.873 86.6217 103.281 86.1947 104.591L80.6439 121.619C79.693 124.536 76.5574 126.129 73.6404 125.179C70.7234 124.228 69.1295 121.092 70.0804 118.175Z" stroke="black" stroke-width="2.21875" stroke-miterlimit="10"/>
<path d="M89.873 98.1675L70.8894 105.297" stroke="black" stroke-width="15.5313" stroke-linecap="round" stroke-linejoin="round"/>
<path d="M89.873 98.1675L70.8894 105.297" stroke="white" stroke-width="11.0938" stroke-linecap="round" stroke-linejoin="round"/>
<path d="M84.2589 93.9943L89.0326 105.538" stroke="black" stroke-width="1.775"/>
<path d="M74.6515 97.4524L79.2141 109.229" stroke="black" stroke-width="1.775"/>
<path d="M65.0641 121.562L60.5062 104.242C60.1556 102.91 60.9513 101.546 62.2836 101.195L68.204 99.6372C69.5363 99.2866 70.9004 100.082 71.251 101.415L75.8089 118.735C76.5897 121.702 74.8173 124.74 71.8502 125.521C68.8832 126.302 65.8449 124.529 65.0641 121.562Z" fill="white"/>
<path d="M65.0641 121.562L60.5062 104.242C60.1556 102.91 60.9513 101.546 62.2836 101.195L68.204 99.6372C69.5363 99.2866 70.9004 100.082 71.251 101.415L75.8089 118.735C76.5897 121.702 74.8173 124.74 71.8502 125.521C68.8832 126.302 65.8449 124.529 65.0641 121.562Z" stroke="black" stroke-width="2.21875" stroke-miterlimit="10"/>
<path d="M41.7991 31.4457C41.7991 31.4457 35.692 28.2506 34.0974 30.1893C32.5027 32.128 31.9635 35.7473 32.587 42.1513C33.2106 48.5554 34.2657 54.6571 36.4841 54.7015C40.2813 54.7776 43.8849 52.8663 43.8849 52.8663L41.7991 31.4457Z" fill="white"/>
<path d="M41.7991 31.4457C41.7991 31.4457 35.692 28.2506 34.0974 30.1893C32.5027 32.128 31.9635 35.7473 32.587 42.1513C33.2106 48.5554 34.2657 54.6571 36.4841 54.7015C40.2813 54.7776 43.8849 52.8663 43.8849 52.8663L41.7991 31.4457Z" stroke="black" stroke-width="2.21875" stroke-miterlimit="10"/>
<path d="M105.969 31.447C105.969 31.447 112.077 28.2519 113.671 30.1906C115.266 32.1293 115.805 35.7486 115.182 42.1527C114.558 48.5567 113.503 54.6584 111.284 54.7028C107.487 54.7789 103.884 52.8676 103.884 52.8676L105.969 31.447Z" fill="white"/>
<path d="M105.969 31.447C105.969 31.447 112.077 28.2519 113.671 30.1906C115.266 32.1293 115.805 35.7486 115.182 42.1527C114.558 48.5567 113.503 54.6584 111.284 54.7028C107.487 54.7789 103.884 52.8676 103.884 52.8676L105.969 31.447Z" stroke="black" stroke-width="2.21875" stroke-miterlimit="10"/>
<path d="M73.8842 2C52.0295 2 38.4951 18.0429 38.4951 37.8328C38.4951 61.2406 54.3394 71.0031 73.8842 71.0031C93.4289 71.0031 109.273 61.2406 109.273 37.8328C109.273 18.0429 95.7389 2 73.8842 2Z" fill="white"/>
<path d="M73.8842 2C52.0295 2 38.4951 18.0429 38.4951 37.8328C38.4951 61.2406 54.3394 71.0031 73.8842 71.0031C93.4289 71.0031 109.273 61.2406 109.273 37.8328C109.273 18.0429 95.7389 2 73.8842 2Z" stroke="black" stroke-width="2.21875" stroke-miterlimit="10"/>
<path d="M73.8846 64.4709C60.9604 64.4709 43.0439 60.4771 43.0439 40.5084C43.0439 26.4777 50.5322 9.88965 73.8846 9.88965C97.2369 9.88965 104.725 26.4777 104.725 40.5084C104.725 60.4771 86.8088 64.4709 73.8846 64.4709Z" fill="black"/>
<rect x="115.534" y="102.333" width="21.9333" height="16.6" rx="3.76667" fill="#EFF5FB"/>
<path d="M126.027 107.279C126.226 106.895 126.775 106.895 126.974 107.279L127.78 108.833C127.855 108.977 127.991 109.079 128.15 109.11L129.846 109.444C130.252 109.524 130.416 110.016 130.139 110.324L128.924 111.675C128.821 111.79 128.773 111.944 128.792 112.097L128.99 113.708C129.047 114.167 128.533 114.476 128.155 114.21L126.807 113.265C126.623 113.136 126.378 113.136 126.194 113.265L124.846 114.21C124.468 114.476 123.954 114.167 124.011 113.708L124.209 112.097C124.228 111.944 124.18 111.79 124.077 111.675L122.862 110.324C122.585 110.016 122.749 109.524 123.155 109.444L124.851 109.11C125.01 109.079 125.146 108.977 125.221 108.833L126.027 107.279Z" fill="#006ED3" stroke="#006ED3" stroke-width="0.8" stroke-linecap="round" stroke-linejoin="round"/>
<rect x="115.534" y="102.333" width="21.9333" height="16.6" rx="3.76667" stroke="black"/>
<defs>
<clipPath id="clip0_127_50600">
<rect width="12.1046" height="12.1046" fill="white" transform="translate(123.087 68.4893)"/>
</clipPath>
</defs>
</svg>
