<svg width="38" height="48" viewBox="0 0 38 48" fill="none" xmlns="http://www.w3.org/2000/svg">
<path d="M37.285 6.85498H35.005V36.57H37.285V6.85498Z" fill="black"/>
<path d="M32.71 41.145H9.86501V38.865H7.57001V41.145H5.29001V48H37.285V41.145H35.005V36.57H32.71V41.145ZM32.71 45.72H28.15V43.425H32.71V45.72Z" fill="black"/>
<path d="M35.005 4.57501H30.43V6.85501H35.005V4.57501Z" fill="black"/>
<path d="M28.15 27.435H23.575V29.715H28.15V27.435Z" fill="black"/>
<path d="M19 29.715H12.145V31.995H19V29.715Z" fill="black"/>
<path d="M14.425 20.565H12.145V22.86H16.72V16.005H21.295V22.86H16.72V25.14H19V29.715H21.295V27.435H23.575V16.005H28.15V27.435H30.43V6.85503H28.15V13.71H16.72V2.28003H14.425V20.565Z" fill="black"/>
<path d="M14.425 0H9.86499V2.28H14.425V0Z" fill="black"/>
<path d="M12.145 27.435H9.86499V29.715H12.145V27.435Z" fill="black"/>
<path d="M12.145 20.565V18.285H9.86501V2.28003H7.57001V18.285H5.29001V20.565H12.145Z" fill="black"/>
<path d="M7.57001 36.57H5.29001V38.865H7.57001V36.57Z" fill="black"/>
<path d="M5.29001 31.995H3.01001V36.57H5.29001V31.995Z" fill="black"/>
<path d="M5.29001 20.565H3.01001V22.86H5.29001V20.565Z" fill="black"/>
<path d="M3.01 22.86H0.714996V31.995H3.01V22.86Z" fill="black"/>
</svg>
