<svg width="29" height="28" viewBox="0 0 29 28" fill="none" xmlns="http://www.w3.org/2000/svg">
<path d="M12.1165 1.96218C13.144 0.89172 14.856 0.891721 15.8835 1.96218L16.1554 2.24543C16.7952 2.91193 17.7396 3.19069 18.6388 2.97844L19.0154 2.88953C20.4536 2.55005 21.8866 3.4707 22.1757 4.91984L22.2627 5.35599C22.4419 6.25412 23.0785 6.99271 23.9404 7.30236L24.3491 7.44918C25.7292 7.94501 26.4303 9.47991 25.9016 10.8477L25.7277 11.2974C25.3999 12.1454 25.5369 13.1029 26.0892 13.8251L26.3803 14.2055C27.2693 15.3678 27.0297 17.0336 25.8492 17.8982L25.4771 18.1707C24.7416 18.7094 24.3404 19.5927 24.4185 20.501L24.4588 20.9686C24.585 22.435 23.4748 23.7159 22.0053 23.7992L21.5994 23.8222C20.6805 23.8743 19.8569 24.4064 19.4317 25.2226L19.2394 25.5917C18.5546 26.9062 16.9142 27.3877 15.6276 26.6518L15.2962 26.4623C14.4931 26.003 13.5069 26.003 12.7038 26.4623L12.3724 26.6518C11.0858 27.3877 9.44537 26.9062 8.76059 25.5917L8.56834 25.2226C8.14311 24.4064 7.31951 23.8743 6.4006 23.8222L5.9947 23.7992C4.52522 23.7159 3.41501 22.435 3.54122 20.9686L3.58146 20.501C3.65964 19.5927 3.25838 18.7094 2.52288 18.1707L2.15078 17.8982C0.970261 17.0336 0.730686 15.3678 1.61971 14.2055L1.91075 13.8251C2.46315 13.1029 2.60009 12.1454 2.27226 11.2974L2.09845 10.8477C1.56968 9.47991 2.27085 7.94501 3.65095 7.44918L4.0596 7.30236C4.92149 6.99271 5.55812 6.25412 5.73728 5.35599L5.82428 4.91984C6.11336 3.4707 7.5464 2.55005 8.98457 2.88953L9.36119 2.97844C10.2604 3.19069 11.2048 2.91193 11.8446 2.24543L12.1165 1.96218Z" fill="url(#paint0_linear_118_2151)"/>
<path d="M4.54053 14.2472C4.54053 8.88634 8.88634 4.54053 14.2472 4.54053V4.54053C19.608 4.54053 23.9538 8.88634 23.9538 14.2472V14.4468C23.9538 19.8076 19.608 24.1534 14.2472 24.1534V24.1534C8.88634 24.1534 4.54053 19.8076 4.54053 14.4468V14.2472Z" fill="black" fill-opacity="0.04"/>
<path d="M22.979 14.2472V14.4468C22.979 19.2692 19.0696 23.1786 14.2472 23.1786C9.42474 23.1786 5.51538 19.2692 5.51538 14.4468V14.2472C5.51538 9.42474 9.42474 5.51538 14.2472 5.51538C19.0696 5.51538 22.979 9.42474 22.979 14.2472Z" stroke="white" stroke-opacity="0.3" stroke-width="1.9497"/>
<g filter="url(#filter0_d_118_2151)">
<path d="M12.6159 16.1093L10.7521 14.2263C10.6517 14.1247 10.5155 14.0676 10.3734 14.0676C10.2313 14.0676 10.0951 14.1247 9.99475 14.2263C9.78528 14.4379 9.78528 14.7798 9.99475 14.9914L12.2399 17.2596C12.4494 17.4713 12.7877 17.4713 12.9972 17.2596L18.6799 11.5186C18.8893 11.3069 18.8893 10.9651 18.6799 10.7534C18.5795 10.6518 18.4433 10.5947 18.3012 10.5947C18.1591 10.5947 18.0229 10.6518 17.9225 10.7534L12.6159 16.1093Z" fill="white"/>
<path d="M12.6159 16.1093L10.7521 14.2263C10.6517 14.1247 10.5155 14.0676 10.3734 14.0676C10.2313 14.0676 10.0951 14.1247 9.99475 14.2263C9.78528 14.4379 9.78528 14.7798 9.99475 14.9914L12.2399 17.2596C12.4494 17.4713 12.7877 17.4713 12.9972 17.2596L18.6799 11.5186C18.8893 11.3069 18.8893 10.9651 18.6799 10.7534C18.5795 10.6518 18.4433 10.5947 18.3012 10.5947C18.1591 10.5947 18.0229 10.6518 17.9225 10.7534L12.6159 16.1093Z" stroke="#FDFDFD" stroke-width="0.38994"/>
</g>
<path d="M23.6414 14.2606C23.6414 19.6289 19.3655 23.9807 14.091 23.9807C8.8164 23.9807 4.54053 19.6289 4.54053 14.2606C4.54053 8.89237 8.8164 4.54053 14.091 4.54053C19.3655 4.54053 23.6414 8.89237 23.6414 14.2606ZM6.55401 14.2606C6.55401 18.4971 9.92841 21.9315 14.091 21.9315C18.2535 21.9315 21.6279 18.4971 21.6279 14.2606C21.6279 10.0241 18.2535 6.58978 14.091 6.58978C9.92841 6.58978 6.55401 10.0241 6.55401 14.2606Z" fill="white" fill-opacity="0.5"/>
<defs>
<filter id="filter0_d_118_2151" x="0.6427" y="1.39978" width="27.3893" height="25.2135" filterUnits="userSpaceOnUse" color-interpolation-filters="sRGB">
<feFlood flood-opacity="0" result="BackgroundImageFix"/>
<feColorMatrix in="SourceAlpha" type="matrix" values="0 0 0 0 0 0 0 0 0 0 0 0 0 0 0 0 0 0 127 0" result="hardAlpha"/>
<feOffset/>
<feGaussianBlur stdDeviation="4.5"/>
<feComposite in2="hardAlpha" operator="out"/>
<feColorMatrix type="matrix" values="0 0 0 0 0.858824 0 0 0 0 0.992157 0 0 0 0 0.580392 0 0 0 0.25 0"/>
<feBlend mode="normal" in2="BackgroundImageFix" result="effect1_dropShadow_118_2151"/>
<feBlend mode="normal" in="SourceGraphic" in2="effect1_dropShadow_118_2151" result="shape"/>
</filter>
<linearGradient id="paint0_linear_118_2151" x1="4.91639" y1="2.62207" x2="20.2742" y2="26.8294" gradientUnits="userSpaceOnUse">
<stop stop-color="#D2E0ED"/>
<stop offset="0.109389" stop-color="#BFC8E7"/>
<stop offset="0.463563" stop-color="#CBCDFC"/>
<stop offset="0.739611" stop-color="#C3ADCB"/>
<stop offset="1" stop-color="#9699B5"/>
</linearGradient>
</defs>
</svg>
