<svg width="128" height="126" viewBox="0 0 128 126" fill="none" xmlns="http://www.w3.org/2000/svg">
<path d="M56 -2H72V2H56V-2Z" fill="black"/>
<path d="M48 6V2H56V6H48Z" fill="black"/>
<path d="M40 10V6H48V10H40Z" fill="black"/>
<path d="M36 14V10H40V14H36Z" fill="black"/>
<path d="M28 18V14H36V18H28Z" fill="black"/>
<path d="M24 22V18H28V22H24Z" fill="black"/>
<path d="M16 26V22H24V26H16Z" fill="black"/>
<path d="M12 30V26H16V30H12Z" fill="black"/>
<path d="M12 94H8V30H12V94Z" fill="black"/>
<path d="M16 98H12V94H16V98Z" fill="black"/>
<path d="M24 102H16V98H24V102Z" fill="black"/>
<path d="M28 106H24V102H28V106Z" fill="black"/>
<path d="M36 110H28V106H36V110Z" fill="black"/>
<path d="M40 114H36V110H40V114Z" fill="black"/>
<path d="M48 118H40V114H48V118Z" fill="black"/>
<path d="M56 122H48V118H56V122Z" fill="black"/>
<path d="M72 122H56V126H72V122Z" fill="black"/>
<path d="M80 118V122H72V118H80Z" fill="black"/>
<path d="M88 114V118H80V114H88Z" fill="black"/>
<path d="M92 110V114H88V110H92Z" fill="black"/>
<path d="M100 106V110H92V106H100Z" fill="black"/>
<path d="M104 102V106H100V102H104Z" fill="black"/>
<path d="M112 98V102H104V98H112Z" fill="black"/>
<path d="M116 94V98H112V94H116Z" fill="black"/>
<path d="M116 30H120V94H116V30Z" fill="black"/>
<path d="M112 26H116V30H112V26Z" fill="black"/>
<path d="M104 22H112V26H104V22Z" fill="black"/>
<path d="M100 18H104V22H100V18Z" fill="black"/>
<path d="M92 14H100V18H92V14Z" fill="black"/>
<path d="M88 10H92V14H88V10Z" fill="black"/>
<path d="M80 6H88V10H80V6Z" fill="black"/>
<path d="M80 6V2H72V6H80Z" fill="black"/>
<path d="M72 2H56V6H48V10H40V14H36V18H28V22H24V26H16V30H12V94H16V98H24V102H28V106H36V110H40V114H48V118H56V122H72V118H80V114H88V110H92V106H100V102H104V98H112V94H116V30H112V26H104V22H100V18H92V14H88V10H80V6H72V2Z" fill="#FFFF50"/>
</svg>
