<svg width="53" height="53" viewBox="0 0 53 53" fill="none" xmlns="http://www.w3.org/2000/svg">
<path d="M0.890625 26.5302C0.890625 12.3866 12.3705 0.920898 26.5141 0.920898C40.6577 0.920898 52.1376 12.3866 52.1376 26.5302C52.1376 40.6739 40.6577 52.1396 26.5141 52.1396C12.3705 52.1396 0.890625 40.6739 0.890625 26.5302Z" fill="url(#paint0_linear_62_45312)"/>
<path d="M4.48556 26.5302C4.48556 14.3746 14.3533 4.51583 26.5141 4.51583C38.6749 4.51583 48.5426 14.3746 48.5426 26.5302C48.5426 38.6859 38.6749 48.5446 26.5141 48.5446C14.3533 48.5446 4.48556 38.6859 4.48556 26.5302Z" stroke="white" stroke-opacity="0.2" stroke-width="7.18987"/>
<path d="M6.87573 26.8445C6.87573 15.831 15.8149 6.90283 26.8284 6.90283C37.8418 6.90283 46.781 15.831 46.781 26.8445C46.781 37.8579 37.8418 46.7861 26.8284 46.7861C15.8149 46.7861 6.87573 37.8579 6.87573 26.8445Z" fill="url(#paint1_linear_62_45312)"/>
<defs>
<linearGradient id="paint0_linear_62_45312" x1="33.8878" y1="52.1396" x2="17.7409" y2="6.57796" gradientUnits="userSpaceOnUse">
<stop offset="0.0625" stop-color="#87704F"/>
<stop offset="1" stop-color="#CBC6C5"/>
</linearGradient>
<linearGradient id="paint1_linear_62_45312" x1="32.5701" y1="46.7861" x2="19.9968" y2="11.3079" gradientUnits="userSpaceOnUse">
<stop offset="0.0625" stop-color="#87704F"/>
<stop offset="1" stop-color="#CBC6C5"/>
</linearGradient>
</defs>
</svg>
