<svg width="16" height="19" viewBox="0 0 16 19" fill="none" xmlns="http://www.w3.org/2000/svg">
<path d="M11.4286 0H4.57143V1.13636H2.28571V2.27273H1.14286V4.54545H0V13.6364H1.14286V15.9091H2.28571V17.0455H4.57143V18.1818H11.4286V17.0455H13.7143V15.9091H14.8571V13.6364H16V4.54545H14.8571V2.27273H13.7143V1.13636H11.4286V0Z" fill="black"/>
<path d="M9.14282 1.13623H5.71425V2.27259H3.42854V3.40896H2.28568V5.68168H1.14282V12.4999H2.28568V14.7726H3.42854V15.909H5.71425V17.0453H9.14282V15.909H11.4285V14.7726H12.5714V12.4999H13.7143V5.68168H12.5714V3.40896H11.4285V2.27259H9.14282V1.13623Z" fill="#FCB5A8"/>
<path d="M5.71422 2.27295H11.4285V3.40931H12.5714V5.68204H13.7142V12.5002H12.5714V15.9093H11.4285V17.0457H5.71422V15.9093H4.57136V14.7729H3.4285V12.5002H2.28564V5.68204H3.4285V3.40931H5.71422V2.27295Z" fill="#FC8E2E"/>
<path d="M10.2858 3.40918H9.14293V13.6365H5.71436V14.7728H10.2858V3.40918Z" fill="black"/>
<path d="M11.4286 15.9092V17.0455H9.14293V15.9092H11.4286Z" fill="black"/>
<path d="M11.4286 15.9092V14.7728H13.7144V15.9092H11.4286Z" fill="black"/>
<path d="M5.71436 3.40918V13.6365H6.85721V4.54554H9.14293V3.40918H5.71436Z" fill="#FCB5A8"/>
</svg>
