<svg width="53" height="53" viewBox="0 0 53 53" fill="none" xmlns="http://www.w3.org/2000/svg">
<path d="M0.890442 26.5301C0.890442 12.3865 12.3703 0.920776 26.5139 0.920776V0.920776C40.6576 0.920776 52.1374 12.3865 52.1374 26.5301V26.5301C52.1374 40.6737 40.6576 52.1394 26.5139 52.1394V52.1394C12.3703 52.1394 0.890442 40.6737 0.890442 26.5301V26.5301Z" fill="url(#paint0_linear_117_1612)"/>
<path d="M26.5139 48.5445C14.3531 48.5445 4.48538 38.6857 4.48538 26.5301C4.48538 14.3745 14.3531 4.51571 26.5139 4.51571C38.6747 4.51571 48.5425 14.3745 48.5425 26.5301C48.5425 38.6857 38.6747 48.5445 26.5139 48.5445Z" stroke="white" stroke-opacity="0.2" stroke-width="7.18987"/>
<path d="M6.87561 26.8446C6.87561 15.8311 15.8148 6.90295 26.8283 6.90295V6.90295C37.8417 6.90295 46.7809 15.8311 46.7809 26.8446V26.8446C46.7809 37.858 37.8417 46.7862 26.8283 46.7862V46.7862C15.8148 46.7862 6.87561 37.858 6.87561 26.8446V26.8446Z" fill="url(#paint1_linear_117_1612)"/>
<defs>
<linearGradient id="paint0_linear_117_1612" x1="9.88865" y1="5.71717" x2="37.9752" y2="50.0122" gradientUnits="userSpaceOnUse">
<stop stop-color="#FFE092"/>
<stop offset="1" stop-color="#E3A302"/>
</linearGradient>
<linearGradient id="paint1_linear_117_1612" x1="13.8824" y1="10.6378" x2="35.753" y2="45.1298" gradientUnits="userSpaceOnUse">
<stop stop-color="#FFE092"/>
<stop offset="1" stop-color="#E3A302"/>
</linearGradient>
</defs>
</svg>
