<svg width="31" height="31" viewBox="0 0 31 31" fill="none" xmlns="http://www.w3.org/2000/svg">
<g filter="url(#filter0_ii_108_50512)">
<path d="M12.8996 2.31826C14.1133 1.05395 16.1367 1.05395 17.3504 2.31826V2.31826C18.1053 3.10476 19.2201 3.4341 20.2812 3.18364V3.18364C21.9783 2.78304 23.6749 3.89734 24.016 5.60736V5.60736C24.2298 6.67919 24.9926 7.57603 26.0212 7.94557V7.94557C27.6682 8.53729 28.4968 10.3901 27.8658 12.0224V12.0224C27.4705 13.0449 27.6339 14.2146 28.2999 15.0853V15.0853C29.3675 16.481 29.0848 18.488 27.6672 19.5263V19.5263C26.7839 20.1732 26.3035 21.2507 26.3974 22.3414V22.3414C26.547 24.08 25.2333 25.6288 23.4911 25.7276V25.7276C22.4016 25.7894 21.4206 26.4288 20.9165 27.3966V27.3966C20.1096 28.9455 18.1685 29.5285 16.6524 28.6614V28.6614C15.7061 28.1201 14.5439 28.1201 13.5976 28.6614V28.6614C12.0815 29.5285 10.1404 28.9455 9.33351 27.3966V27.3966C8.82935 26.4288 7.84842 25.7894 6.75894 25.7276V25.7276C5.0167 25.6288 3.70301 24.08 3.85265 22.3414V22.3414C3.94653 21.2507 3.46609 20.1732 2.58284 19.5263V19.5263C1.16517 18.488 0.882475 16.481 1.9501 15.0853V15.0853C2.6161 14.2146 2.77947 13.0449 2.38421 12.0224V12.0224C1.75319 10.3901 2.58181 8.53729 4.22881 7.94557V7.94557C5.25739 7.57603 6.02022 6.67919 6.23402 5.60736V5.60736C6.57514 3.89734 8.27173 2.78304 9.96881 3.18364V3.18364C11.0299 3.4341 12.1447 3.10476 12.8996 2.31826V2.31826Z" fill="#D9DBDD"/>
</g>
<rect width="5.66421" height="1.94487" rx="0.972434" transform="matrix(0.699674 0.714462 -0.699674 0.714462 10.6638 14.1763)" fill="#EDEEEF"/>
<rect width="10.7977" height="1.94487" rx="0.972434" transform="matrix(-0.699674 0.714463 -0.699674 -0.714463 20.9543 11.939)" fill="#EDEEEF"/>
<path d="M25.1379 15.1227C25.1379 20.7044 20.6608 25.2292 15.1379 25.2292C9.61509 25.2292 5.13794 20.7044 5.13794 15.1227C5.13794 9.54097 9.61509 5.01611 15.1379 5.01611C20.6608 5.01611 25.1379 9.54097 25.1379 15.1227ZM7.13794 15.1227C7.13794 19.588 10.7197 23.2079 15.1379 23.2079C19.5562 23.2079 23.1379 19.588 23.1379 15.1227C23.1379 10.6573 19.5562 7.03742 15.1379 7.03742C10.7197 7.03742 7.13794 10.6573 7.13794 15.1227Z" fill="#ECEDEE"/>
<defs>
<filter id="filter0_ii_108_50512" x="-1.69702" y="-0.629883" width="32.644" height="31.6943" filterUnits="userSpaceOnUse" color-interpolation-filters="sRGB">
<feFlood flood-opacity="0" result="BackgroundImageFix"/>
<feBlend mode="normal" in="SourceGraphic" in2="BackgroundImageFix" result="shape"/>
<feColorMatrix in="SourceAlpha" type="matrix" values="0 0 0 0 0 0 0 0 0 0 0 0 0 0 0 0 0 0 127 0" result="hardAlpha"/>
<feOffset dx="2" dy="2"/>
<feGaussianBlur stdDeviation="2.25"/>
<feComposite in2="hardAlpha" operator="arithmetic" k2="-1" k3="1"/>
<feColorMatrix type="matrix" values="0 0 0 0 0.887695 0 0 0 0 0.887695 0 0 0 0 0.887695 0 0 0 1 0"/>
<feBlend mode="normal" in2="shape" result="effect1_innerShadow_108_50512"/>
<feColorMatrix in="SourceAlpha" type="matrix" values="0 0 0 0 0 0 0 0 0 0 0 0 0 0 0 0 0 0 127 0" result="hardAlpha"/>
<feOffset dx="-3" dy="-2"/>
<feGaussianBlur stdDeviation="2.5"/>
<feComposite in2="hardAlpha" operator="arithmetic" k2="-1" k3="1"/>
<feColorMatrix type="matrix" values="0 0 0 0 0.829362 0 0 0 0 0.829362 0 0 0 0 0.829362 0 0 0 0.5 0"/>
<feBlend mode="normal" in2="effect1_innerShadow_108_50512" result="effect2_innerShadow_108_50512"/>
</filter>
</defs>
</svg>
