<svg width="40" height="46" viewBox="0 0 40 46" fill="none" xmlns="http://www.w3.org/2000/svg">
<path d="M14.2925 13.8575H11.9975V16.1375H14.2925V13.8575Z" fill="black"/>
<path d="M9.7175 41.3V18.4325H11.9975V16.1375H9.7175V13.85H0.567501V45.845H9.7175V43.565H14.3V41.3H9.7175ZM7.4225 23H5.15V18.44H7.43L7.4225 23Z" fill="black"/>
<path d="M16.5725 11.5775H14.2925V13.8575H16.5725V11.5775Z" fill="black"/>
<path d="M18.8525 2.42755H16.5725V11.5776H18.8525V2.42755Z" fill="black"/>
<path d="M21.1475 18.4325H18.8525V20.7125H21.1475V18.4325Z" fill="black"/>
<path d="M23.4275 0.147522H18.8525V2.42752H23.4275V0.147522Z" fill="black"/>
<path d="M23.4275 16.1375H21.1475V18.4325H23.4275V16.1375Z" fill="black"/>
<path d="M23.4275 25.2875H21.1475V29.8625H23.4275V25.2875Z" fill="black"/>
<path d="M23.4275 32.1425H21.1475V36.7175H23.4275V32.1425Z" fill="black"/>
<path d="M25.7075 2.42755H23.4275V4.70755H25.7075V2.42755Z" fill="black"/>
<path d="M25.7075 13.8575H23.4275V16.1375H25.7075V13.8575Z" fill="black"/>
<path d="M28.0025 4.70752H25.7075V13.8575H28.0025V4.70752Z" fill="black"/>
<path d="M37.1375 16.1375H25.7075V18.4325H37.1375V16.1375Z" fill="black"/>
<path d="M28.0025 41.2925H25.7075V43.5725H14.2925V45.8525H32.5775V43.5725H28.0025V41.2925Z" fill="black"/>
<path d="M23.4275 36.7175V41.2925H25.7075V38.9975H34.8575V41.2925H37.1375V36.7175H23.4275Z" fill="black"/>
<path d="M34.8575 41.2925H32.5775V43.5725H34.8575V41.2925Z" fill="black"/>
<path d="M37.1375 22.9925H25.7075V18.4325H23.4275V25.2875H37.1375V29.8625H23.4275V32.1425H37.1375V36.7175H39.4325V18.4325H37.1375V22.9925Z" fill="black"/>
</svg>
